<svg width="354" height="284" viewBox="0 0 354 284" fill="none" xmlns="http://www.w3.org/2000/svg">
<path d="M19.4 223.7C15.6 223.7 11.95 223.25 8.45 222.3C4.95 221.35 2.15 220.15 0 218.7L4.3 209C6.35 210.3 8.75 211.4 11.45 212.25C14.15 213.1 16.85 213.55 19.5 213.55C21.35 213.55 22.8 213.4 23.9 213.1C24.95 212.8 25.75 212.35 26.25 211.8C26.75 211.25 27 210.55 27 209.75C27 208.75 26.5 207.95 25.55 207.35C24.6 206.75 23.3 206.25 21.75 205.85C20.2 205.45 18.5 205.05 16.7 204.65C14.9 204.3 13 203.8 11.15 203.15C9.3 202.5 7.55 201.75 6 200.7C4.45 199.7 3.25 198.35 2.3 196.75C1.35 195.15 0.900002 193.1 0.900002 190.65C0.900002 187.95 1.65 185.45 3.15 183.2C4.65 180.95 6.9 179.15 9.95 177.8C13 176.45 16.75 175.75 21.25 175.75C24.3 175.75 27.25 176.1 30.15 176.75C33.05 177.45 35.65 178.45 37.9 179.8L33.95 189.4C31.75 188.15 29.6 187.25 27.45 186.7C25.3 186.15 23.2 185.85 21.2 185.85C19.4 185.85 17.95 186.05 16.85 186.45C15.75 186.85 14.95 187.35 14.5 187.95C14 188.55 13.8 189.2 13.8 189.95C13.8 191 14.3 191.85 15.25 192.4C16.2 193 17.45 193.5 19 193.85C20.55 194.25 22.25 194.6 24.1 195C25.95 195.4 27.8 195.9 29.65 196.5C31.5 197.1 33.2 197.9 34.75 198.85C36.3 199.85 37.55 201.15 38.55 202.75C39.5 204.35 40 206.35 40 208.75C40 211.45 39.25 213.9 37.75 216.15C36.25 218.4 33.95 220.2 30.95 221.6C27.75 223.05 23.95 223.7 19.4 223.7Z" fill="#E3E4E3"/>
<path d="M48.2 222.8L68.55 176.7H81.4L101.8 222.8H88.25L72.3 183.1H77.45L61.5 222.8H48.2ZM59.35 213.8L62.7 204.25H85.2L88.55 213.8H59.35Z" fill="#E3E4E3"/>
<path d="M110.15 222.8V176.7H120.9L146.25 207.4H141.2V176.7H153.95V222.8H143.2L117.8 192.1H122.85V222.8H110.15Z" fill="#E3E4E3"/>
<path d="M176.75 222.8V187.05H162.6V176.7H203.85V187.05H189.75V222.8H176.75Z" fill="#E3E4E3"/>
<path d="M242.75 178.3L241 177.8C205.6 188.1 254 206.6 234.85 221.05L236.6 221.55C272 211.3 223.65 192.75 242.75 178.3Z" fill="#E3E4E3"/>
<path d="M237.85 223.7C234.2 223.7 230.8 223.1 227.7 221.9C224.55 220.7 221.85 219.05 219.55 216.85C217.25 214.7 215.5 212.15 214.2 209.2C212.9 206.3 212.25 203.1 212.25 199.6C212.25 196.2 212.9 193 214.2 190.1C215.5 187.2 217.3 184.65 219.55 182.5C221.8 180.35 224.55 178.65 227.65 177.45C230.75 176.25 234.15 175.65 237.85 175.65C241.55 175.65 244.95 176.25 248.05 177.45C251.15 178.65 253.85 180.3 256.15 182.45C258.45 184.6 260.2 187.1 261.5 190C262.8 192.9 263.45 196.1 263.45 199.55C263.45 203.05 262.8 206.3 261.55 209.2C260.3 212.1 258.5 214.65 256.2 216.8C253.9 218.95 251.2 220.6 248.05 221.8C244.95 223.1 241.55 223.7 237.85 223.7ZM237.85 212.9C239.6 212.9 241.25 212.6 242.75 212C244.25 211.4 245.6 210.5 246.7 209.35C247.8 208.2 248.7 206.8 249.35 205.2C250 203.6 250.3 201.8 250.3 199.75C250.3 197.7 250 195.9 249.35 194.3C248.7 192.7 247.85 191.3 246.7 190.15C245.6 189 244.25 188.1 242.75 187.5C241.25 186.9 239.6 186.6 237.85 186.6C236.1 186.6 234.45 186.9 232.95 187.5C231.45 188.1 230.1 189 228.95 190.15C227.8 191.3 226.95 192.7 226.3 194.3C225.7 195.9 225.4 197.7 225.4 199.75C225.4 201.8 225.7 203.6 226.3 205.2C226.9 206.8 227.8 208.2 228.95 209.35C230.1 210.5 231.4 211.4 232.95 212C234.45 212.6 236.1 212.9 237.85 212.9Z" fill="#E3E4E3"/>
<path d="M290.35 223.7C286.55 223.7 282.9 223.25 279.4 222.3C275.9 221.35 273.1 220.15 270.95 218.7L275.25 209C277.3 210.3 279.7 211.4 282.4 212.25C285.1 213.1 287.8 213.55 290.45 213.55C292.3 213.55 293.75 213.4 294.85 213.1C295.9 212.8 296.7 212.35 297.2 211.8C297.7 211.25 297.95 210.55 297.95 209.75C297.95 208.75 297.45 207.95 296.5 207.35C295.55 206.75 294.25 206.25 292.7 205.85C291.15 205.45 289.45 205.05 287.65 204.65C285.85 204.3 283.95 203.8 282.1 203.15C280.25 202.5 278.5 201.75 276.95 200.7C275.4 199.7 274.2 198.35 273.25 196.75C272.3 195.15 271.85 193.1 271.85 190.65C271.85 187.95 272.6 185.45 274.1 183.2C275.6 180.95 277.85 179.15 280.9 177.8C283.95 176.45 287.7 175.75 292.2 175.75C295.25 175.75 298.2 176.1 301.1 176.75C304 177.45 306.6 178.45 308.85 179.8L304.9 189.4C302.7 188.15 300.55 187.25 298.4 186.7C296.25 186.15 294.15 185.85 292.15 185.85C290.35 185.85 288.9 186.05 287.8 186.45C286.7 186.85 285.9 187.35 285.45 187.95C284.95 188.55 284.75 189.2 284.75 189.95C284.75 191 285.25 191.85 286.2 192.4C287.15 193 288.4 193.5 289.95 193.85C291.5 194.25 293.2 194.6 295.05 195C296.9 195.4 298.75 195.9 300.6 196.5C302.45 197.1 304.15 197.9 305.7 198.85C307.25 199.85 308.5 201.15 309.5 202.75C310.45 204.35 310.95 206.35 310.95 208.75C310.95 211.45 310.2 213.9 308.7 216.15C307.2 218.4 304.9 220.2 301.9 221.6C298.7 223.05 294.9 223.7 290.35 223.7Z" fill="#E3E4E3"/>
<path d="M126.9 269.15V278.15C126.9 280.95 124.65 283.2 121.85 283.2H119.8C117 283.2 114.75 280.95 114.75 278.15V252.1C114.75 249.3 117 247.05 119.8 247.05H121.85C124.65 247.05 126.9 249.3 126.9 252.1V260.45H121.85V252.85C121.85 252.3 121.4 251.85 120.85 251.85H120.75C120.2 251.85 119.75 252.3 119.75 252.85V277.35C119.75 277.9 120.2 278.35 120.75 278.35H120.85C121.4 278.35 121.85 277.9 121.85 277.35V269.1L126.9 269.15Z" fill="#E3E4E3"/>
<path d="M152.15 282.85H147.35L146.75 275.15H144.2L143.6 282.85H138.8L142.5 247.35H148.5L152.15 282.85ZM146.45 270.95L145.45 257.1L144.45 270.95H146.45Z" fill="#E3E4E3"/>
<path d="M169.05 252.2V262.7H173V267.55H169.05V282.85H164V247.35H174.2V252.2H169.05Z" fill="#E3E4E3"/>
<path d="M190.9 252.2V262.7H194.85V267.55H190.9V278.05H196.05V282.9H185.85V247.4H196.05V252.25L190.9 252.2Z" fill="#E3E4E3"/>
<path d="M185.95 245.75L190.9 241H195.35L189.25 245.75H185.95Z" fill="#E3E4E3"/>
<path d="M310.75 263.05H209.45V267.05H310.75V263.05Z" fill="#E3E4E3"/>
<path d="M101.8 263.05H0V267.05H101.8V263.05Z" fill="#E3E4E3"/>
<path d="M142.5 95.9001C117.1 91.6501 94.45 79.5001 77.2499 62.1501L83.1 57.2001C98.75 73.2001 119.35 84.5001 142.5 88.6501V75C109.8 69.55 83.5499 46 75.5499 15.5C75.2 14.65 74.85 13.7501 74.5499 12.9001H142.5V0.0500488H0.449951C0.699951 8.75005 1.59995 17.25 3.19995 25.5C3.29995 26 3.39995 26.5001 3.49995 26.9501C17.1999 92.7501 73.35 143.3 142.55 149.65V136.35C105.35 131.35 72.6499 112.5 50.0499 85.25L53.7999 82.05C76.2 106.95 107.35 124.1 142.55 128.8V116.15C111.2 111.5 83.4999 96.1001 63.4499 73.8501L67.4499 70.4501C87.0499 90.5001 113.2 104.35 142.5 108.75V106.35H142.4V95.9001H142.5Z" fill="#E3E4E3"/>
<path d="M331.45 2.55C325.45 1.5 319.75 2.35001 314.9 4.70001C314.85 4.70001 314.75 4.70001 314.7 4.70001L314.65 4.85001C312.95 5.70001 311.35 6.75001 309.9 7.95001C310.1 5.30001 310.25 2.65 310.3 0H168.2V12.85H236.25C235.95 13.75 235.6 14.6 235.25 15.45C227.25 45.95 200.95 69.55 168.2 74.95V88.6C191.4 84.4 212 73.1 227.65 57.1L233.5 62.05C216.3 79.45 193.6 91.6 168.2 95.85V106.35V108.75C197.5 104.35 223.65 90.5 243.25 70.45L247.25 73.85C227.2 96.1 199.5 111.55 168.15 116.15V128.85C203.35 124.15 234.5 107 256.9 82.1L260.65 85.3C238.05 112.55 205.35 131.4 168.1 136.4V149.7C222.7 144.7 269.2 112.15 293.1 66.3C318.9 62 335.15 54.8 344 46.8C346.05 45.1 347.8 43.1 349.2 40.85C350.55 38.75 351.45 36.7 352 34.6C352.25 33.75 352.45 32.85 352.6 32L352.65 31.85C355.15 18.1 346.2 5.2 331.45 2.55ZM339.2 29.55L339.15 29.7C337.95 36.6 332.05 41.6 324.75 40.3C317.55 39 313.6 32.15 314.85 25.25L314.9 25.1C316.1 18.2 322 13.2 329.25 14.5C336.5 15.8 340.45 22.65 339.2 29.55Z" fill="#E3E4E3"/>
</svg>
